<svg width="47" height="58" viewBox="0 0 47 58" fill="none" xmlns="http://www.w3.org/2000/svg">
<path d="M46.5607 47.0607C47.1464 46.4749 47.1464 45.5251 46.5607 44.9393L37.0147 35.3934C36.4289 34.8076 35.4792 34.8076 34.8934 35.3934C34.3076 35.9792 34.3076 36.9289 34.8934 37.5147L43.3787 46L34.8934 54.4853C34.3076 55.0711 34.3076 56.0208 34.8934 56.6066C35.4792 57.1924 36.4289 57.1924 37.0147 56.6066L46.5607 47.0607ZM3 1C1.53235 0.690162 1.53215 0.691129 1.53191 0.692266C1.53178 0.692874 1.5315 0.694186 1.53125 0.695403C1.53074 0.697837 1.53009 0.700958 1.5293 0.70476C1.52774 0.712364 1.52562 0.722691 1.52299 0.735699C1.51774 0.761715 1.51044 0.798458 1.50137 0.845583C1.48323 0.939828 1.458 1.07564 1.42786 1.25025C1.3676 1.59942 1.28765 2.10415 1.2056 2.74231C1.04161 4.01787 0.868614 5.83091 0.828381 8.00348C0.748119 12.3377 1.19498 18.1617 3.34169 24.0164C5.49551 29.8905 9.3638 35.7983 16.0983 40.2224C22.8229 44.6401 32.2857 47.5 45.5 47.5V44.5C32.7143 44.5 23.8646 41.7349 17.7455 37.7151C11.6362 33.7017 8.12949 28.3595 6.15831 22.9836C4.18002 17.5883 3.75188 12.1623 3.82787 8.05902C3.86576 6.01284 4.02871 4.31025 4.18111 3.12488C4.25727 2.53257 4.33065 2.0705 4.38415 1.76049C4.4109 1.60551 4.43266 1.48864 4.4473 1.4126C4.45462 1.37458 4.46015 1.34678 4.46363 1.32953C4.46537 1.32091 4.4666 1.31493 4.46728 1.31163C4.46762 1.30999 4.46783 1.30901 4.46789 1.30871C4.46792 1.30856 4.46786 1.30884 4.46788 1.30876C4.46778 1.30921 4.46765 1.30984 3 1Z" fill="#E1CC0B"/>
</svg>
