<svg width="16" height="17" viewBox="0 0 16 17" fill="none" xmlns="http://www.w3.org/2000/svg">
<path d="M15.2931 1.08882C15.1474 0.941391 14.9738 0.824433 14.7824 0.744761C14.591 0.66509 14.3857 0.624297 14.1783 0.62476H9.85658C9.57308 0.625288 9.30123 0.737591 9.10002 0.937299L0.46037 9.57519C0.165568 9.8706 0 10.2709 0 10.6882C0 11.1056 0.165568 11.5059 0.46037 11.8013L4.57365 15.9146C4.86913 16.2095 5.26956 16.3751 5.68705 16.3751C6.10454 16.3751 6.50497 16.2095 6.80045 15.9146L15.4366 7.28019C15.6367 7.0793 15.7494 6.80753 15.7502 6.52398V2.19976C15.7515 1.99353 15.7117 1.78911 15.6332 1.59839C15.5548 1.40766 15.4392 1.23445 15.2931 1.08882ZM12.3752 5.12476C12.1527 5.12476 11.9352 5.05878 11.7502 4.93516C11.5652 4.81155 11.421 4.63585 11.3358 4.43028C11.2507 4.22471 11.2284 3.99851 11.2718 3.78028C11.3152 3.56205 11.4223 3.3616 11.5797 3.20426C11.737 3.04693 11.9375 2.93978 12.1557 2.89638C12.3739 2.85297 12.6001 2.87525 12.8057 2.9604C13.0113 3.04554 13.187 3.18974 13.3106 3.37474C13.4342 3.55975 13.5002 3.77726 13.5002 3.99976C13.5002 4.29813 13.3816 4.58428 13.1707 4.79525C12.9597 5.00623 12.6735 5.12476 12.3752 5.12476Z" fill="#414141"/>
</svg>
