<svg width="20" height="20" viewBox="0 0 20 20" fill="none" xmlns="http://www.w3.org/2000/svg">
<g clip-path="url(#clip0_22_162)">
<path d="M19.388 0.404993C19.33 0.260505 19.2185 0.143946 19.0768 0.0795646C18.935 0.0151834 18.7739 0.00793688 18.6269 0.0593324C18.4799 0.110728 18.3584 0.216808 18.2877 0.355506C18.2169 0.494203 18.2024 0.654838 18.247 0.803993C19.176 3.47399 17.332 5.46799 15.926 6.53599L15.358 5.72199C15.167 5.44899 14.74 5.22199 14.408 5.21799L11.22 5.23199C10.8306 5.24375 10.4516 5.36054 10.123 5.56999L0.729048 12.157C0.510543 12.3108 0.361867 12.5448 0.315573 12.808C0.269279 13.0711 0.32914 13.3419 0.482048 13.561L4.75105 19.669C5.07105 20.124 5.58205 20.069 6.03805 19.751L15.432 13.163C15.702 12.972 16.014 12.56 16.124 12.245L17.122 9.09999C17.232 8.78599 17.165 8.30699 16.974 8.03399L16.628 7.53799C18.516 6.09099 20.476 3.53399 19.388 0.404993ZM15.017 9.76299C14.844 9.88413 14.6488 9.96999 14.4425 10.0156C14.2362 10.0613 14.023 10.0659 13.815 10.0291C13.607 9.99233 13.4082 9.91493 13.2301 9.80132C13.0521 9.68771 12.8981 9.54012 12.777 9.36699C12.532 9.01665 12.4359 8.58338 12.51 8.16229C12.584 7.7412 12.8221 7.3667 13.172 7.12099C13.4464 6.92881 13.7739 6.82714 14.1088 6.83018C14.4437 6.83323 14.7693 6.94085 15.04 7.13799C14.768 7.30199 14.581 7.39799 14.546 7.41299C14.4221 7.4721 14.3219 7.57156 14.2618 7.69507C14.2018 7.81858 14.1855 7.95882 14.2156 8.09281C14.2457 8.2268 14.3204 8.3466 14.4275 8.43257C14.5346 8.51854 14.6677 8.56558 14.805 8.56599C14.891 8.56599 14.979 8.54599 15.062 8.50699C15.256 8.41499 15.464 8.30599 15.681 8.17699C15.731 8.47705 15.6951 8.78511 15.5777 9.0657C15.4602 9.34629 15.2659 9.58799 15.017 9.76299Z" fill="black"/>
</g>
<defs>
<clipPath id="clip0_22_162">
<rect width="20" height="20" fill="white"/>
</clipPath>
</defs>
</svg>
