<svg width="18" height="19" viewBox="0 0 18 19" fill="none" xmlns="http://www.w3.org/2000/svg">
<path d="M14.7817 2.42857V0.5H3.21429V2.42857H0V3.95536C0 5.24107 0.381696 6.47817 1.07518 7.43522C1.61076 8.17451 2.44808 8.68478 3.20103 8.93027C3.4196 10.1071 4.01263 11.2257 5.21759 12.1377C6.10152 12.8071 7.16424 13.2977 8.11607 13.4982V16.7321H5.14286V18.5H12.8571V16.7321H9.88393V13.4982C10.8358 13.2973 11.8981 12.8071 12.7824 12.1377C13.9878 11.2257 14.5804 10.1071 14.799 8.93027C15.5519 8.68478 16.3892 8.17451 16.9248 7.43522C17.6183 6.47817 18 5.24107 18 3.95536V2.42857H14.7817ZM2.50714 6.39821C2.07804 5.80839 1.81728 5.01607 1.77429 4.19643H3.21429V6.90326C3.05598 6.85746 2.69518 6.65737 2.50714 6.39821ZM15.4929 6.39821C15.308 6.66379 15.0268 6.90366 14.7857 6.90366C14.7857 6.00366 14.7857 5.04379 14.7837 4.19643H16.2261C16.1827 5.01607 15.9107 5.79955 15.4929 6.39821Z" fill="#414141"/>
</svg>
