<svg width="200" height="176" viewBox="0 0 200 176" fill="none" xmlns="http://www.w3.org/2000/svg">
<path d="M184 32H24C21.8783 32 19.8434 31.1571 18.3431 29.6569C16.8429 28.1566 16 26.1217 16 24C16 21.8783 16.8429 19.8434 18.3431 18.3431C19.8434 16.8429 21.8783 16 24 16H160C162.122 16 164.157 15.1571 165.657 13.6569C167.157 12.1566 168 10.1217 168 8C168 5.87827 167.157 3.84344 165.657 2.34315C164.157 0.842856 162.122 0 160 0H24C17.6429 0.0263237 11.5537 2.56334 7.05852 7.05852C2.56334 11.5537 0.0263237 17.6429 0 24V152C0.0263237 158.357 2.56334 164.446 7.05852 168.941C11.5537 173.437 17.6429 175.974 24 176H184C188.243 176 192.313 174.314 195.314 171.314C198.314 168.313 200 164.243 200 160V48C200 43.7565 198.314 39.6869 195.314 36.6863C192.313 33.6857 188.243 32 184 32ZM148 116C145.627 116 143.307 115.296 141.333 113.978C139.36 112.659 137.822 110.785 136.913 108.592C136.005 106.399 135.768 103.987 136.231 101.659C136.694 99.3311 137.836 97.193 139.515 95.5147C141.193 93.8365 143.331 92.6936 145.659 92.2306C147.987 91.7676 150.399 92.0052 152.592 92.9135C154.785 93.8217 156.659 95.3598 157.978 97.3332C159.296 99.3066 160 101.627 160 104C160 107.183 158.736 110.235 156.485 112.485C154.235 114.736 151.183 116 148 116Z" fill="black"/>
</svg>
